
        <svg xmlns="http://www.w3.org/2000/svg" xmlns:xlink="http://www.w3.org/1999/xlink" version="1.1" width="2815.2188951920375" height="3169.336474898769" viewBox="0 0 2815.2188951920375 3169.336474898769">
			
			<g transform="scale(8.46682374493846) translate(10, 10)">
				<defs id="SvgjsDefs1453"><linearGradient id="SvgjsLinearGradient1462"><stop id="SvgjsStop1463" stop-color="#905e26" offset="0"/><stop id="SvgjsStop1464" stop-color="#f5ec9b" offset="0.5"/><stop id="SvgjsStop1465" stop-color="#905e26" offset="1"/></linearGradient></defs><g id="SvgjsG1454" featureKey="rootContainer" transform="matrix(6.3004014813942035,0,0,6.3004014813942035,0.000046358657472104394,0.02629501308574099)" fill="#000"><path xmlns="http://www.w3.org/2000/svg" d="M23.11 55.78L1.69 43.41A3.39 3.39 0 0 1 0 40.48V15.75a3.39 3.39 0 0 1 1.69-2.94L23.11.45a3.39 3.39 0 0 1 3.39 0l21.41 12.37a3.39 3.39 0 0 1 1.69 2.94v24.72a3.39 3.39 0 0 1-1.69 2.94L26.5 55.78a3.39 3.39 0 0 1-3.39 0z"/></g><g id="SvgjsG1455" featureKey="symbolFeature-0" transform="matrix(0.10970927777961921,0,0,0.10970927777961921,79.86176456900571,92.15798095823527)" fill="#ffffff"><g xmlns="http://www.w3.org/2000/svg"><polygon points="482.6,520.6 329.4,396 493.3,647.6 1000.2,144.4  "/><polygon points="742.1,647.6 868.4,647.6 868.4,333.3 742.1,458.7  "/><polygon points="699,647.6 699,501.5 551.8,647.6  "/><polygon points="911.5,290.5 911.5,647.6 1058.6,647.6 1058.6,144.4  "/></g></g><g id="SvgjsG1456" featureKey="nameFeature-0" transform="matrix(1.6990128130469542,0,0,1.6990128130469542,51.147112341246576,163.5838412178989)" fill="#ffffff"><path d="M28.571 15.713999999999999 l0 6.9714 l-3.0286 3.0286 l3.0286 3.0286 l0 6.9714 l-4.2857 4.2857 l-21.429 0 l0 -28.571 l21.429 0 z M21.143 22.571 l0 -4.8571 l-10.857 0 l0 4.8571 l10.857 0 z M21.143 33.7143 l0 -4.8571 l-10.857 0 l0 4.8571 l10.857 0 z M59.428714285714285 17.714 l-16.857 0 l0 4.8571 l14.571 0 l0 6.2857 l-14.571 0 l0 4.8571 l16.857 0 l0 6.2857 l-20 0 l-4.2857 -4.2857 l0 -24.286 l24.286 0 l0 6.2857 z M83.99985714285714 17.714 l-10.571 0 l0 4.8571 l14 0 l4.2857 4.2857 l0 8.8571 l-4.2857 4.2857 l-17.143 0 l-4.2857 -4.2857 l0 -4.2857 l5.4286 0 l2.2857 2.2857 l10.571 0 l0 -4.8571 l-14 0 l-4.2857 -4.2857 l0 -8.8571 l4.2857 -4.2857 l17.143 0 l4.2857 4.2857 l0 4.2857 l-5.4286 0 z M96.28571142857142 17.714 l0 -6.2857 l24.286 0 l0 6.2857 l-8.4571 0 l0 22.286 l-7.4286 0 l0 -22.286 l-8.4 0 z"/></g><g id="SvgjsG1457" featureKey="sloganFeature-0" transform="matrix(0.35578564262478773,0,0,0.35578564262478773,73.90833614050536,240.05029450197827)" fill="#ffffff"><path d="M5.8790000000000004 20 l0 -14.3 l7.46 0 c3.76 0 4.94 1.84 4.94 3.76 l0 0.08 c0 1.76 -0.98 2.76 -2.56 3.1 c1.58 0.22 2.86 1.26 2.86 3.3 l0 0.08 c0 2.5 -1.56 3.98 -5.46 3.98 l-7.24 0 z M11.059000000000001 16.56 l0.96 0 c0.9 0 1.32 -0.44 1.32 -1.16 l0 -0.08 c0 -0.72 -0.38 -1.14 -1.38 -1.14 l-0.9 0 l0 2.38 z M11.059000000000001 11.1 l1.04 0 c0.84 0 1.18 -0.28 1.18 -0.92 l0 -0.08 c0 -0.64 -0.32 -0.98 -1.18 -0.98 l-1.04 0 l0 1.98 z M28.598 16.12 c1.4 0 2.3 -1.12 2.3 -3.2 l0 -0.16 c0 -2.2 -0.96 -3.14 -2.32 -3.14 c-1.34 0 -2.26 0.96 -2.26 3.14 l0 0.16 c0 2.16 0.82 3.2 2.28 3.2 z M28.458 20.28 c-4.82 0 -7.7 -2.9 -7.7 -7.34 l0 -0.16 c0 -4.52 3.5 -7.3 7.82 -7.3 c4.44 0 7.88 2.5 7.88 7.16 l0 0.16 c0 4.58 -3.14 7.48 -8 7.48 z M46.537 16.12 c1.4 0 2.3 -1.12 2.3 -3.2 l0 -0.16 c0 -2.2 -0.96 -3.14 -2.32 -3.14 c-1.34 0 -2.26 0.96 -2.26 3.14 l0 0.16 c0 2.16 0.82 3.2 2.28 3.2 z M46.397 20.28 c-4.82 0 -7.7 -2.9 -7.7 -7.34 l0 -0.16 c0 -4.52 3.5 -7.3 7.82 -7.3 c4.44 0 7.88 2.5 7.88 7.16 l0 0.16 c0 4.58 -3.14 7.48 -8 7.48 z M57.416 20 l0 -14.3 l5.34 0 l0 4.88 l3.32 -4.88 l5.48 0 l-4.66 6.5 l4.92 7.8 l-6.1 0 l-2.96 -5.14 l0 5.14 l-5.34 0 z M74.535 20 l0 -14.3 l5.34 0 l0 4.88 l3.32 -4.88 l5.48 0 l-4.66 6.5 l4.92 7.8 l-6.1 0 l-2.96 -5.14 l0 5.14 l-5.34 0 z M91.654 20 l0 -14.3 l10.68 0 l0 4.06 l-5.38 0 l0 1.22 l4.24 0 l0 3.68 l-4.24 0 l0 1.28 l5.68 0 l0 4.06 l-10.98 0 z M105.833 20 l0 -14.3 l10.68 0 l0 4.06 l-5.38 0 l0 1.22 l4.24 0 l0 3.68 l-4.24 0 l0 1.28 l5.68 0 l0 4.06 l-10.98 0 z M120.012 20 l0 -14.3 l6.16 0 c4.52 0 6.12 2.02 6.12 5.1 l0 0.08 c0 2.96 -1.88 4.8 -5.86 4.8 l-1.12 0 l0 4.32 l-5.3 0 z M125.312 12.16 l0.52 0 c0.96 0 1.44 -0.42 1.44 -1.26 l0 -0.08 c0 -0.82 -0.46 -1.18 -1.42 -1.18 l-0.54 0 l0 2.52 z M135.311 20 l0 -14.3 l5.38 0 l0 14.3 l-5.38 0 z M144.55 20 l0 -14.3 l5.94 0 l3.1 6.64 l0 -6.64 l4.72 0 l0 14.3 l-5.06 0 l-3.96 -7.8 l0 7.8 l-4.74 0 z M169.12900000000002 20.28 c-5.08 0 -7.78 -3 -7.78 -7.34 l0 -0.16 c0 -4.44 3.4 -7.3 7.78 -7.3 c3.66 0 6.92 1.64 7.1 5.64 l-5.26 0 c-0.08 -0.86 -0.6 -1.46 -1.82 -1.46 c-1.36 0 -2.26 1.12 -2.26 3.22 l0 0.16 c0 1.7 0.42 3.22 2.44 3.22 c1.44 0 1.94 -0.62 2.08 -1.16 l-2 0 l0 -3.24 l7.14 0 l0 2 c0 3.4 -2.28 6.42 -7.42 6.42 z M184.02700000000002 15.84 l0 -3.3 l6.28 0 l0 3.3 l-6.28 0 z M197.44500000000002 20 l4.4 -14.3 l6.86 0 l4.38 14.3 l-5.68 0 l-0.48 -1.9 l-4.04 0 l-0.48 1.9 l-4.96 0 z M204.925 9.98 l-1.16 4.56 l2.28 0 z M222.844 20.28 c-5.44 0 -7.86 -2.96 -7.86 -7.34 l0 -0.16 c0 -4.48 3.28 -7.3 7.6 -7.3 c4.1 0 6.72 1.8 7.08 5.92 l-5.52 0 c-0.06 -1.08 -0.62 -1.72 -1.54 -1.72 c-1.26 0 -2 1 -2 3.08 l0 0.16 c0 2.02 0.72 3.1 2.1 3.1 c0.98 0 1.7 -0.52 1.82 -1.72 l5.32 0 c-0.16 3.9 -3.04 5.98 -7 5.98 z M239.803 20.28 c-5.44 0 -7.86 -2.96 -7.86 -7.34 l0 -0.16 c0 -4.48 3.28 -7.3 7.6 -7.3 c4.1 0 6.72 1.8 7.08 5.92 l-5.52 0 c-0.06 -1.08 -0.62 -1.72 -1.54 -1.72 c-1.26 0 -2 1 -2 3.08 l0 0.16 c0 2.02 0.72 3.1 2.1 3.1 c0.98 0 1.7 -0.52 1.82 -1.72 l5.32 0 c-0.16 3.9 -3.04 5.98 -7 5.98 z M256.72200000000004 16.12 c1.4 0 2.3 -1.12 2.3 -3.2 l0 -0.16 c0 -2.2 -0.96 -3.14 -2.32 -3.14 c-1.34 0 -2.26 0.96 -2.26 3.14 l0 0.16 c0 2.16 0.82 3.2 2.28 3.2 z M256.582 20.28 c-4.82 0 -7.7 -2.9 -7.7 -7.34 l0 -0.16 c0 -4.52 3.5 -7.3 7.82 -7.3 c4.44 0 7.88 2.5 7.88 7.16 l0 0.16 c0 4.58 -3.14 7.48 -8 7.48 z M274.461 20.28 c-4.42 0 -6.94 -2.12 -6.94 -6.38 l0 -8.2 l5.32 0 l0 8.04 c0 1.52 0.2 2.38 1.62 2.38 c1.4 0 1.52 -0.92 1.52 -2.34 l0 -8.08 l5.36 0 l0 8.22 c0 4.52 -2.78 6.36 -6.88 6.36 z M285.06000000000006 20 l0 -14.3 l5.94 0 l3.1 6.64 l0 -6.64 l4.72 0 l0 14.3 l-5.06 0 l-3.96 -7.8 l0 7.8 l-4.74 0 z M305.27900000000005 20 l0 -10.22 l-3.46 0 l0 -4.08 l12.28 0 l0 4.08 l-3.46 0 l0 10.22 l-5.36 0 z M317.1380000000001 20 l0 -14.3 l5.38 0 l0 14.3 l-5.38 0 z M326.37700000000007 20 l0 -14.3 l5.94 0 l3.1 6.64 l0 -6.64 l4.72 0 l0 14.3 l-5.06 0 l-3.96 -7.8 l0 7.8 l-4.74 0 z M350.9560000000001 20.28 c-5.08 0 -7.78 -3 -7.78 -7.34 l0 -0.16 c0 -4.44 3.4 -7.3 7.78 -7.3 c3.66 0 6.92 1.64 7.1 5.64 l-5.26 0 c-0.08 -0.86 -0.6 -1.46 -1.82 -1.46 c-1.36 0 -2.26 1.12 -2.26 3.22 l0 0.16 c0 1.7 0.42 3.22 2.44 3.22 c1.44 0 1.94 -0.62 2.08 -1.16 l-2 0 l0 -3.24 l7.14 0 l0 2 c0 3.4 -2.28 6.42 -7.42 6.42 z M365.85400000000004 15.84 l0 -3.3 l6.28 0 l0 3.3 l-6.28 0 z M383.052 20 l0 -10.22 l-3.46 0 l0 -4.08 l12.28 0 l0 4.08 l-3.46 0 l0 10.22 l-5.36 0 z M393.711 20 l4.4 -14.3 l6.86 0 l4.38 14.3 l-5.68 0 l-0.48 -1.9 l-4.04 0 l-0.48 1.9 l-4.96 0 z M401.19100000000003 9.98 l-1.16 4.56 l2.28 0 z M411.05 20 l4.26 -7.36 l-3.92 -6.94 l6.08 0 l1.56 3.56 l1.52 -3.56 l5.44 0 l-3.54 6.72 l4.3 7.58 l-6.06 0 l-2.08 -4.34 l-2.06 4.34 l-5.5 0 z M429.58900000000006 20 l0 -14.3 l10.68 0 l0 4.06 l-5.38 0 l0 1.22 l4.24 0 l0 3.68 l-4.24 0 l0 1.28 l5.68 0 l0 4.06 l-10.98 0 z M449.38800000000003 20.28 c-4.08 0 -6.48 -1.48 -6.52 -4.92 l5.02 0 c0.04 0.68 0.42 1.22 1.5 1.22 c0.84 0 1.1 -0.32 1.1 -0.76 c0 -0.5 -0.44 -0.74 -1.62 -0.88 c-4.26 -0.46 -5.72 -1.64 -5.72 -4.68 c0 -2.78 2.22 -4.78 6.02 -4.78 c3.74 0 5.76 1.46 6 4.74 l-4.92 0 c-0.04 -0.62 -0.42 -1.04 -1.1 -1.04 c-0.64 0 -0.96 0.26 -0.96 0.68 c0 0.48 0.38 0.74 1.6 0.86 c3.54 0.34 5.8 1.2 5.8 4.52 c0 2.72 -2.08 5.04 -6.2 5.04 z"/></g>
			</g>
		</svg>
	